<?xml version="1.0" encoding="UTF-8" standalone="no"?>
<!DOCTYPE svg PUBLIC "-//W3C//DTD SVG 1.1//EN" "http://www.w3.org/Graphics/SVG/1.1/DTD/svg11.dtd">
<svg version="1.1" xmlns="http://www.w3.org/2000/svg" xmlns:xlink="http://www.w3.org/1999/xlink" preserveAspectRatio="xMidYMid meet" viewBox="0 0 640 640" width="300" height="300"><defs><path d="M620 320C620 473.43 494.98 598 341 598C187.02 598 62 473.43 62 320C62 166.57 187.02 42 341 42C494.98 42 620 166.57 620 320Z" id="b1g8I1zcQg"></path><path d="M454.68 426.41C458.86 413.38 426.55 392.57 412.91 365.69C376.57 294.08 377.39 364.99 354.48 364.81C328.12 364.61 294.45 311.88 294.12 362.59C293.95 387.02 232.4 393.79 247.27 421.9C259.55 445.12 297.07 471.15 359.8 500C415.93 473.13 447.55 448.6 454.68 426.41Z" id="b8cHJSiT1D"></path><path d="M409.47 150L283.66 152.72L263.41 220L263.41 334.2L326.59 380.25L366.59 380.91L432.63 336.79L436.59 220L409.47 150Z" id="c6l8luwt"></path><path d="M85.87 432.5L95 450.97L102.5 464.51L113 480L128.33 500L142.08 515L161.95 533.59L182.5 548.97L199.11 559.4L223.88 572.04L246.21 581.8L278.91 591.44L318.71 597.5L334.31 597.5L350 597.5L363.53 596.78L383.15 594.94L405 590.59L428.71 584.45L453.18 574.35L468.43 567.5L487.5 556.42L508.8 542.3L530.53 523.66L541.31 513.69L555.95 497.5L568.91 480L576.55 468.7L581.25 460.94L590 445L597.5 428.78L602.5 417.5L605 409.4L596.56 402.15L580 396.81L563.72 396.81L440 400C434.56 400.93 428.78 401.92 422.66 402.97C416.55 404.01 410.09 405.12 403.3 406.28L383.19 414.66L370.44 420L356.82 410L340 410L334.23 420L320 411.93L305.73 408.22L265.9 400L146.73 394.56L128.74 390.49L111.49 393.41L96.38 400L78.18 413.68L85.87 432.5Z" id="apX6ixBc6"></path><path d="" id="f1KbjJmtnp"></path><path d="M435.35 218.74L447.5 229.51L450 232.5L450 236.24L450 252.01L450 257.5L449.52 262.5C448.75 263.94 447.46 265.21 445.64 266.31C445.07 266.66 441.19 270.25 440.54 270.55C437.83 271.8 435.13 271.62 432.42 270L435.35 218.74Z" id="c1dLuDaz5f"></path><path d="M265.67 217.48L251.84 228.83L249 231.99L249 235.94L249 252.58L249 258.37L249.54 263.64C250.42 265.16 251.89 266.5 253.96 267.66C254.61 268.03 259.02 271.82 259.76 272.14C262.84 273.46 265.92 273.26 269 271.56L265.67 217.48Z" id="bb9nHNT5I"></path><path d="M247.89 230L247.43 224.18L247.26 213.7L250.22 200L254.63 174.16L265.56 150L273 140L280.22 133.21L293.92 127.19L303.96 123.5L312.72 120.89L318.9 120L325.22 120L333.57 120L340.82 120L350.22 120L365.07 120L386.15 122.59L403.59 132.76L422.72 144.92L437.43 155.82L444.17 166.19L450.22 190L452.74 209.16L452.15 217.03L451.06 234.06L444.65 240.82L435.22 246.23L432.68 230L425.81 215L420.22 208L415.22 200.95L408.82 195.97L399.2 191.2L385 190L374 190L365 190L349.44 190L338.96 190L322.03 190L315.64 194.06L310.22 197.1L300.22 204.96L293.15 210L286.44 214.71L278.2 218.39L268.82 220L267.98 227.4L267.98 235L266.86 246.57L261.84 243.32L258.56 241.46L253.97 237.71L249.1 232.96L247.89 230Z" id="ddiE3hLyc"></path><path d="M334.01 235.63C338.25 235.63 341.68 239.06 341.68 243.3C341.68 247.51 341.68 252.49 341.68 256.7C341.68 260.94 338.25 264.37 334.01 264.37C326.53 264.37 311.75 264.37 304.27 264.37C300.03 264.37 296.6 260.94 296.6 256.7C296.6 252.49 296.6 247.51 296.6 243.3C296.6 239.06 300.03 235.63 304.27 235.63C311.75 235.63 326.53 235.63 334.01 235.63Z" id="b3lFq9CunA"></path><path d="M394.87 235.63C399.11 235.63 402.54 239.06 402.54 243.3C402.54 247.51 402.54 252.49 402.54 256.7C402.54 260.94 399.11 264.37 394.87 264.37C387.39 264.37 372.61 264.37 365.13 264.37C360.89 264.37 357.46 260.94 357.46 256.7C357.46 252.49 357.46 247.51 357.46 243.3C357.46 239.06 360.89 235.63 365.13 235.63C372.61 235.63 387.39 235.63 394.87 235.63Z" id="b14BaqeY8s"></path><path d="M360 250L360 250L336.81 250L360 250Z" id="anxLl3etw"></path><path d="M358.41 247.87C356.02 247.3 354.32 245.6 349.86 245.6C345.39 245.6 342.61 247.3 340.53 247.87" id="b372ZxGEX"></path><path d="M332.08 436.25L348.42 406.61L271.86 374.73L250 402.23L332.08 436.25Z" id="b1296Vv4j7"></path><path d="M371.83 436.25L351.74 407.86L425.86 375.98L445 403.48L371.83 436.25Z" id="lbAAGfmMU"></path><path d="M348 411L348 411L348 595.73L348 595.73L348 411Z" id="ai0nz4G4Q"></path><path d="M358.82 425.38C358.82 427.79 357.07 429.75 354.91 429.75C352.75 429.75 351 427.79 351 425.38C351 422.96 352.75 421 354.91 421C357.07 421 358.82 422.96 358.82 425.38Z" id="a2bo7phOh4"></path><path d="M360.82 504.38C360.82 506.79 359.07 508.75 356.91 508.75C354.75 508.75 353 506.79 353 504.38C353 501.96 354.75 500 356.91 500C359.07 500 360.82 501.96 360.82 504.38Z" id="bVrU1CErN"></path><path d="M359.82 465.38C359.82 467.79 358.07 469.75 355.91 469.75C353.75 469.75 352 467.79 352 465.38C352 462.96 353.75 461 355.91 461C358.07 461 359.82 462.96 359.82 465.38Z" id="c7i5byS2P"></path><path d="M360.82 541.38C360.82 543.79 359.07 545.75 356.91 545.75C354.75 545.75 353 543.79 353 541.38C353 538.96 354.75 537 356.91 537C359.07 537 360.82 538.96 360.82 541.38Z" id="f39F3OJJHc"></path><path d="M360.82 579.38C360.82 581.79 359.07 583.75 356.91 583.75C354.75 583.75 353 581.79 353 579.38C353 576.96 354.75 575 356.91 575C359.07 575 360.82 576.96 360.82 579.38Z" id="fm7mezJTi"></path></defs><g><g><g><use xlink:href="#b1g8I1zcQg" opacity="1" fill="#160a16" fill-opacity="1"></use></g><g><use xlink:href="#b8cHJSiT1D" opacity="1" fill="#c49363" fill-opacity="1"></use></g><g><use xlink:href="#c6l8luwt" opacity="1" fill="#c49363" fill-opacity="1"></use><g><use xlink:href="#c6l8luwt" opacity="1" fill-opacity="0" stroke="#c49363" stroke-width="6" stroke-opacity="0.12"></use></g></g><g><use xlink:href="#apX6ixBc6" opacity="1" fill="#eaeaea" fill-opacity="1"></use><g><use xlink:href="#apX6ixBc6" opacity="1" fill-opacity="0" stroke="#c49363" stroke-width="1" stroke-opacity="0.12"></use></g></g><g><g><use xlink:href="#f1KbjJmtnp" opacity="1" fill-opacity="0" stroke="#c49363" stroke-width="1" stroke-opacity="0.12"></use></g></g><g><use xlink:href="#c1dLuDaz5f" opacity="1" fill="#c49363" fill-opacity="1"></use></g><g><use xlink:href="#bb9nHNT5I" opacity="1" fill="#c49363" fill-opacity="1"></use></g><g><use xlink:href="#ddiE3hLyc" opacity="1" fill="#725639" fill-opacity="1"></use></g><g><g><use xlink:href="#b3lFq9CunA" opacity="1" fill-opacity="0" stroke="#2c2c2c" stroke-width="3" stroke-opacity="1"></use></g></g><g><g><use xlink:href="#b14BaqeY8s" opacity="1" fill-opacity="0" stroke="#2c2c2c" stroke-width="3" stroke-opacity="1"></use></g></g><g><use xlink:href="#anxLl3etw" opacity="1" fill="#0e0e0e" fill-opacity="1"></use></g><g><g><use xlink:href="#b372ZxGEX" opacity="1" fill-opacity="0" stroke="#2c2c2c" stroke-width="2" stroke-opacity="1"></use></g></g><g><use xlink:href="#b1296Vv4j7" opacity="1" fill="#e4e4e4" fill-opacity="1"></use><g><use xlink:href="#b1296Vv4j7" opacity="1" fill-opacity="0" stroke="#2c2c2c" stroke-width="1" stroke-opacity="1"></use></g></g><g><use xlink:href="#lbAAGfmMU" opacity="1" fill="#e4e4e4" fill-opacity="1"></use><g><use xlink:href="#lbAAGfmMU" opacity="1" fill-opacity="0" stroke="#2c2c2c" stroke-width="1" stroke-opacity="1"></use></g></g><g><use xlink:href="#ai0nz4G4Q" opacity="1" fill="#353535" fill-opacity="1"></use><g><use xlink:href="#ai0nz4G4Q" opacity="1" fill-opacity="0" stroke="#2c2c2c" stroke-width="1" stroke-opacity="1"></use></g></g><g><use xlink:href="#a2bo7phOh4" opacity="1" fill="#353535" fill-opacity="1"></use></g><g><use xlink:href="#bVrU1CErN" opacity="1" fill="#353535" fill-opacity="1"></use></g><g><use xlink:href="#c7i5byS2P" opacity="1" fill="#353535" fill-opacity="1"></use></g><g><use xlink:href="#f39F3OJJHc" opacity="1" fill="#353535" fill-opacity="1"></use></g><g><use xlink:href="#fm7mezJTi" opacity="1" fill="#353535" fill-opacity="1"></use></g></g></g></svg>