<?xml version="1.0" encoding="UTF-8" standalone="no"?>
<!DOCTYPE svg PUBLIC "-//W3C//DTD SVG 1.1//EN" "http://www.w3.org/Graphics/SVG/1.1/DTD/svg11.dtd">
<svg version="1.1" xmlns="http://www.w3.org/2000/svg" xmlns:xlink="http://www.w3.org/1999/xlink" preserveAspectRatio="xMidYMid meet" viewBox="0 0 640 640" width="260" height="260"><defs><path d="M620 320C620 473.43 494.98 598 341 598C187.02 598 62 473.43 62 320C62 166.57 187.02 42 341 42C494.98 42 620 166.57 620 320Z" id="b2hGFLzUS3"></path><path d="M400.74 322.16L600 408.97L80 413.45L277.85 331.5L400.74 322.16Z" id="c9K9x3w0M"></path><path d="M454.68 426.41C458.86 413.38 426.55 392.57 412.91 365.69C376.57 294.08 377.39 364.99 354.48 364.81C328.12 364.61 294.45 311.88 294.12 362.59C293.95 387.02 232.4 393.79 247.27 421.9C259.55 445.12 297.07 471.15 359.8 500C415.93 473.13 447.55 448.6 454.68 426.41Z" id="e2IkLssg13"></path><path d="M410.06 150.09L284.26 152.81L264 220.09L264 334.3L327.19 380.34L367.19 381L433.22 336.88L437.19 220.09L410.06 150.09Z" id="b1uMwoZyfr"></path><path d="M85.87 432.5L95 450.97L102.5 464.51L113 480L128.33 500L142.08 515L161.95 533.59L182.5 548.97L199.11 559.4L223.88 572.04L246.21 581.8L278.91 591.44L318.71 597.5L334.31 597.5L350 597.5L363.53 596.78L383.15 594.94L405 590.59L428.71 584.45L453.18 574.35L468.43 567.5L487.5 556.42L508.8 542.3L530.53 523.66L541.31 513.69L555.95 497.5L568.91 480L576.55 468.7L581.25 460.94L590 445L597.5 428.78L602.5 417.5L605 409.4L596.56 402.15L580 396.81L563.72 396.81L440 400C434.56 400.93 428.78 401.92 422.66 402.97C416.55 404.01 410.09 405.12 403.3 406.28L383.19 414.66L370.44 420L352.96 432.81L334.23 420L320 411.93L305.73 408.22L265.9 400L146.73 394.56L128.74 390.49L111.49 393.41L96.38 400L78.18 413.68L85.87 432.5Z" id="a1GBwyfUjd"></path><path d="" id="i1CT31qN43"></path><path d="M435.35 218.74L447.5 229.51L450 232.5L450 236.24L450 252.01L450 257.5L449.52 262.5C448.75 263.94 447.46 265.21 445.64 266.31C445.07 266.66 441.19 270.25 440.54 270.55C437.83 271.8 435.13 271.62 432.42 270L435.35 218.74Z" id="d6xgfNKB4"></path><path d="M265.67 217.48L251.84 228.83L249 231.99L249 235.94L249 252.58L249 258.37L249.54 263.64C250.42 265.16 251.89 266.5 253.96 267.66C254.61 268.03 259.02 271.82 259.76 272.14C262.84 273.46 265.92 273.26 269 271.56L265.67 217.48Z" id="a1wPp5WYby"></path><path d="M247.89 230L247.43 224.18L247.26 213.7L250.22 200L254.63 174.16L265.56 150L273 140L280.22 133.21L293.92 127.19L303.96 123.5L312.72 120.89L318.9 120L325.22 120L333.57 120L340.82 120L350.22 120L365.07 120L386.15 122.59L403.59 132.76L422.72 144.92L437.43 155.82L444.17 166.19L450.22 190L452.74 209.16L452.15 217.03L451.06 234.06L444.65 240.82L435.22 246.23L432.68 230L425.81 215L420.22 208L415.22 200.95L408.82 195.97L399.2 191.2L385 190L374 190L365 190L349.44 190L338.96 190L341.76 198.81L342.13 203.96L341.88 212.5L338.82 217.5L335.22 221.67L330.6 223.75L324.35 223.51L320.56 222.25L318 220.78L316 217.16L314.75 212.5L318.16 214.15L321.04 215L324.22 216.26L326.93 217.21L329.06 215L330.64 212.5L331.36 210L331.6 207.5L330 203.48L328.17 200.59L326.39 198.25L323.43 195L320.22 191.98L316.15 190L310.22 197.1L300.22 204.96L293.15 210L286.44 214.71L278.2 218.39L268.82 220L267.98 227.4L267.98 235L266.86 246.57L261.84 243.32L258.56 241.46L253.97 237.71L249.1 232.96L247.89 230Z" id="c611BtUMw"></path><path d="M186.24 551.82L195.01 556.17L210 566L230 574.45L235.8 577.11L243.6 581.31L254.15 583.78L275.73 590L300.54 595L320.39 597.96L352.11 600L382.94 595.98L401.97 591.44C407.79 590.15 412.03 588.84 414.69 587.51C416.32 586.7 428.65 584.02 429.58 583.56C432.02 582.34 438.63 579.82 449.43 575.99L479.21 561.49L497.22 550L512.39 540L444.33 480L239.56 480L180 546.47L186.24 551.82Z" id="b1TLA1iGjy"></path></defs><g><g><g><use xlink:href="#b2hGFLzUS3" opacity="1" fill="#160a16" fill-opacity="1"></use></g><g><use xlink:href="#c9K9x3w0M" opacity="1" fill="#a10020" fill-opacity="1"></use><g><use xlink:href="#c9K9x3w0M" opacity="1" fill-opacity="0" stroke="#c49363" stroke-width="1" stroke-opacity="0.12"></use></g></g><g><use xlink:href="#e2IkLssg13" opacity="1" fill="#c49363" fill-opacity="1"></use></g><g><g><filter id="shadow3923239" x="237" y="123.09" width="228.19" height="285.91" filterUnits="userSpaceOnUse" primitiveUnits="userSpaceOnUse"><feFlood></feFlood><feComposite in2="SourceAlpha" operator="in"></feComposite><feGaussianBlur stdDeviation="3.16"></feGaussianBlur><feOffset dx="1" dy="1" result="afterOffset"></feOffset><feFlood flood-color="#000000" flood-opacity="0.57"></feFlood><feComposite in2="afterOffset" operator="in"></feComposite><feMorphology operator="dilate" radius="1"></feMorphology><feComposite in2="SourceAlpha" operator="out"></feComposite></filter><path d="M410.06 150.09L284.26 152.81L264 220.09L264 334.3L327.19 380.34L367.19 381L433.22 336.88L437.19 220.09L410.06 150.09Z" id="m4J3RNwTF3" fill="white" fill-opacity="1" filter="url(#shadow3923239)"></path></g><use xlink:href="#b1uMwoZyfr" opacity="1" fill="#c49363" fill-opacity="1"></use><g><use xlink:href="#b1uMwoZyfr" opacity="1" fill-opacity="0" stroke="#c49363" stroke-width="1" stroke-opacity="0.12"></use></g></g><g><use xlink:href="#a1GBwyfUjd" opacity="1" fill="#074050" fill-opacity="1"></use><g><use xlink:href="#a1GBwyfUjd" opacity="1" fill-opacity="0" stroke="#c49363" stroke-width="1" stroke-opacity="0.12"></use></g></g><g><g><use xlink:href="#i1CT31qN43" opacity="1" fill-opacity="0" stroke="#c49363" stroke-width="1" stroke-opacity="0.12"></use></g></g><g><use xlink:href="#d6xgfNKB4" opacity="1" fill="#c49363" fill-opacity="1"></use></g><g><use xlink:href="#a1wPp5WYby" opacity="1" fill="#c49363" fill-opacity="1"></use></g><g><use xlink:href="#c611BtUMw" opacity="1" fill="#725639" fill-opacity="1"></use></g><g><use xlink:href="#b1TLA1iGjy" opacity="1" fill="#0b6781" fill-opacity="1"></use><g><use xlink:href="#b1TLA1iGjy" opacity="1" fill-opacity="0" stroke="#c49363" stroke-width="1" stroke-opacity="0.12"></use></g></g></g></g></svg>